<?xml version="1.0" encoding="utf-8"?>
<!-- Generator: Adobe Illustrator 26.1.0, SVG Export Plug-In . SVG Version: 6.00 Build 0)  -->
<svg version="1.1" id="Layer_1" xmlns="http://www.w3.org/2000/svg" xmlns:xlink="http://www.w3.org/1999/xlink" x="0px" y="0px"
	 viewBox="0 0 498.2 117.9" style="enable-background:new 0 0 498.2 117.9;" xml:space="preserve">
<style type="text/css">
	.st0{fill:#263143;}
	.st1{fill:#4CAB37;stroke:#4CAB37;stroke-width:0.3791;stroke-miterlimit:10;}
	.st2{fill:#4CAB37;}
	.st3{fill:none;stroke:#000000;stroke-width:0.3791;stroke-miterlimit:10;}
	.st4{fill:#4CAB37;stroke:#000000;stroke-width:0.3791;stroke-miterlimit:10;}
	.st5{fill:#4CAB37;stroke:#FF0000;stroke-width:0.3791;stroke-miterlimit:10;}
	.st6{fill:none;stroke:#FF0000;stroke-width:0.3791;stroke-miterlimit:10;}
	.st7{fill:none;stroke:#000000;stroke-width:0.4535;stroke-miterlimit:10;}
	.st8{fill:#4CAB37;stroke:#000000;stroke-width:0.4535;stroke-miterlimit:10;}
	.st9{fill:#4CAB37;stroke:#FF0000;stroke-width:0.4535;stroke-miterlimit:10;}
	.st10{fill:none;stroke:#FF0000;stroke-width:0.4535;stroke-miterlimit:10;}
</style>
<g>
	<g>
		<path class="st0" d="M481.3,8.6L481.3,8.6c0-4.7,3.7-8.6,8.5-8.6c4.7,0,8.4,3.9,8.4,8.5v0c0,4.6-3.7,8.5-8.5,8.5
			C485,17,481.3,13.1,481.3,8.6z M497.3,8.5L497.3,8.5c0-4.2-3.2-7.6-7.5-7.6c-4.3,0-7.5,3.4-7.5,7.6v0c0,4.1,3.2,7.5,7.5,7.5
			C494,16.1,497.3,12.6,497.3,8.5z M485.2,8.4L485.2,8.4c0-2.6,2-4.7,4.8-4.7c1.9,0,3,0.7,3.8,1.8l-1.9,1.5
			c-0.5-0.6-1.1-1.1-1.9-1.1c-1.3,0-2.1,1.1-2.1,2.4v0c0,1.3,0.8,2.3,2.1,2.3c0.9,0,1.5-0.4,2-1.1l1.9,1.4c-0.9,1.2-2,2-3.9,2
			C487.2,13,485.2,11.1,485.2,8.4z"/>
	</g>
	<path class="st0" d="M154,63.3c-6.3-6.1-9.4-14-9.4-23.6c0-9.7,3.2-17.6,9.6-23.9c6.5-6.3,14.3-9.4,23.4-9.4
		c11.5,0,21.9,5.3,27.5,13.2l-8.6,8.4c-5-6.1-11.1-9.2-18.2-9.2c-5.8,0-10.6,2-14.5,6c-3.9,3.9-5.9,8.9-5.9,15
		c0,5.9,1.9,10.7,5.8,14.6c3.9,3.9,8.7,5.8,14.5,5.8c7.4,0,13.7-3.1,18.6-9.3l8.8,8c-5.9,8-16.3,13.6-28.2,13.6
		C168.2,72.4,160.3,69.3,154,63.3z"/>
	<path class="st0" d="M248.2,24.3h11.6v47.1h-11.6V66c-4.1,4.4-9.1,6.6-15,6.6c-6.7,0-12.4-2.3-16.8-7.1c-4.4-4.8-6.6-10.7-6.6-17.8
		s2.2-13,6.7-17.5c4.4-4.7,10-7,16.7-7c5.9,0,10.9,2.2,15,6.8V24.3z M244.5,38.2c-2.5-2.7-5.6-4-9.4-4c-3.9,0-7,1.3-9.5,4
		c-2.4,2.7-3.6,5.9-3.6,9.6c0,3.8,1.2,7,3.7,9.7c2.5,2.7,5.6,4,9.4,4c3.8,0,6.9-1.3,9.4-4c2.5-2.7,3.8-5.9,3.8-9.7
		C248.3,44.1,247,40.9,244.5,38.2z"/>
	<path class="st0" d="M270.7,71.4V24.3h11.7v6.3c2.9-5.1,7.2-7.6,13-7.6c1.9,0,3.8,0.4,5.7,1l-1,11.7c-2-0.6-3.9-1-5.6-1
		c-6.9,0-11.5,4.5-11.5,14.3v22.4H270.7z"/>
	<path class="st0" d="M344.7,68.7c-3.9,2.6-8.5,3.9-13.9,3.9c-10.8,0-16.4-6.4-16.4-18.6V34.5h-7.7V24.3h7.8V7.6h12.1v16.7h15.6
		v10.2h-15.6v18.7c0,5.5,2.2,8.3,6.7,8.3c2.3,0,5-0.8,7.9-2.4L344.7,68.7z"/>
	<path class="st0" d="M364.4,71.4h-12.2V5.7h12.2V71.4z"/>
	<path class="st0" d="M378.2,30.3C383,25.4,389,23,396.4,23s13.4,2.4,18.2,7.3c4.8,4.8,7.1,10.6,7.1,17.5c0,7-2.3,12.9-7.1,17.6
		c-4.8,4.8-10.8,7.2-18.2,7.2s-13.4-2.4-18.2-7.2c-4.8-4.8-7.1-10.6-7.1-17.6C371.2,40.9,373.5,35,378.2,30.3z M396.4,61.3
		c3.7,0,6.7-1.3,9.2-3.9c2.5-2.7,3.8-5.9,3.8-9.6s-1.3-6.9-3.8-9.5c-2.5-2.6-5.5-3.9-9.2-3.9s-6.8,1.3-9.3,3.9
		c-2.5,2.6-3.7,5.8-3.7,9.5s1.2,6.9,3.7,9.6C389.6,60,392.7,61.3,396.4,61.3z"/>
	<path class="st0" d="M440,71.3l-16.1-47h12.8l9.4,30.9l10.6-30.9h8.6l11,30.9l9.2-30.9h12.8l-15.9,47h-10.6l-10.6-29.5l-10.5,29.5
		H440z"/>
	<g>
		<path class="st0" d="M86.2,58.9c0-15-12.2-27.2-27.2-27.2S31.7,43.9,31.7,58.9H86.2z"/>
		<path class="st2" d="M82,98l-23.1-9.6l8.7,15l7.1,12.3c8.2-2.3,15.7-6.3,22.1-11.6L82,98z"/>
		<g>
			<path class="st2" d="M58.9,0C26.4,0,0,26.4,0,58.9s26.4,58.9,58.9,58.9c5.5,0,10.8-0.8,15.8-2.2l-7.1-12.3
				c-2.8,0.5-5.7,0.8-8.7,0.8c-25,0-45.3-20.3-45.3-45.3s20.3-45.3,45.3-45.3c25,0,45.3,20.3,45.3,45.3h13.6
				C117.9,26.4,91.5,0,58.9,0z"/>
		</g>
	</g>
	<g>
		<path class="st2" d="M159.8,100.3c1.6-0.8,3.3-2.4,3.3-5.3v-0.1c0-1.5-0.5-2.8-1.6-3.9c-1.4-1.4-3.6-2.1-6.2-2.1h-10.1v23.5h10.5
			c5.3,0,8.6-2.5,8.6-6.5v-0.1C164.4,103.3,162.8,101.4,159.8,100.3z M161.3,105.8c0,2.4-2,3.9-5.4,3.9h-7.5V102h7.1
			C159.2,102,161.3,103.4,161.3,105.8L161.3,105.8z M155.1,91.8c3.1,0,4.9,1.3,4.9,3.5v0.1c0,2.4-1.9,3.9-5.1,3.9h-6.6v-7.5H155.1z"
			/>
		<path class="st2" d="M180.8,105c0,3-2,5.1-4.9,5.1c-2.8,0-4.5-1.8-4.5-4.9V95h-3v10.8c0,4.3,2.7,7.1,6.8,7.1
			c2.4,0,4.2-0.9,5.6-2.8v2.5h3V95h-3V105z"/>
		<path class="st2" d="M196.5,108.9l-6-13.8h-3.3l7.9,17.2c-0.9,2.2-1.8,3-3.2,3c-1,0-1.7-0.2-2.6-0.6l-0.2-0.1l-1,2.4l0.2,0.1
			c1.3,0.6,2.4,0.9,3.7,0.9c2.7,0,4.4-1.4,5.9-5L205,95h-3.2L196.5,108.9z"/>
		<rect x="207.8" y="108.6" class="st2" width="3.5" height="3.9"/>
		<path class="st2" d="M227.7,99.3c-5.1-1.1-6.1-2.3-6.1-4.3v-0.1c0-2.1,1.9-3.5,4.7-3.5c2.4,0,4.5,0.8,6.5,2.5L233,94l1.8-2.4
			l-0.2-0.1c-2.5-2-5-2.9-8.3-2.9c-4.5,0-7.8,2.7-7.8,6.5v0.1c0,4.3,3.2,5.9,7.9,6.9c4.9,1,5.8,2.3,5.8,4.2v0.1c0,2.2-2,3.7-4.9,3.7
			c-3,0-5.2-0.9-7.8-3.2l-0.2-0.2l-1.9,2.3l0.2,0.1c2.9,2.6,5.9,3.8,9.6,3.8c4.8,0,8.1-2.8,8.1-6.8V106
			C235.4,102.5,233.1,100.5,227.7,99.3z"/>
		<path class="st2" d="M247.2,94.6c-4.8,0-8.4,3.9-8.4,9.1c0,5.2,3.8,9.1,8.7,9.1c2.9,0,5.2-1,7.2-3.3l0.2-0.2l-1.9-1.7l-0.2,0.2
			c-1.5,1.6-3.2,2.3-5.2,2.3c-3,0-5.3-2.1-5.7-5.2h13.5l0-0.2c0-0.4,0-0.7,0-0.9C255.3,98.4,252.1,94.6,247.2,94.6z M247.1,97.2
			c3.3,0,4.9,2.7,5.2,5.3h-10.5C242.3,99.4,244.4,97.2,247.1,97.2z"/>
		<rect x="259.6" y="88" class="st2" width="3" height="24.5"/>
		<rect x="268.2" y="88" class="st2" width="3" height="24.5"/>
		<rect x="278.9" y="108.6" class="st2" width="3.5" height="3.9"/>
		<path class="st2" d="M308.9,96.1L308.9,96.1c0-1.9-0.7-3.6-1.8-4.8c-1.5-1.5-3.9-2.4-6.7-2.4h-10.2v23.5h3.1v-9h6.3l6.6,8.9
			l0.1,0.1h3.8l-7.1-9.5C306.7,102.2,308.9,99.7,308.9,96.1z M293.2,91.8h6.9c3.6,0,5.7,1.6,5.7,4.3v0.1c0,2.7-2.2,4.5-5.7,4.5h-6.9
			V91.8z"/>
		<path class="st2" d="M320.6,94.6c-4.8,0-8.4,3.9-8.4,9.1c0,5.2,3.8,9.1,8.7,9.1c2.9,0,5.2-1,7.2-3.3l0.2-0.2l-1.9-1.7l-0.2,0.2
			c-1.5,1.6-3.2,2.3-5.2,2.3c-3,0-5.3-2.1-5.7-5.2h13.5l0-0.2c0-0.4,0-0.7,0-0.9C328.8,98.4,325.5,94.6,320.6,94.6z M320.5,97.2
			c3.3,0,4.9,2.7,5.2,5.3h-10.5C315.7,99.4,317.8,97.2,320.5,97.2z"/>
		<path class="st2" d="M345.9,107.7c-1.5,1.7-3.2,2.5-5,2.5c-3.4,0-6-2.8-6-6.4v-0.1c0-3.6,2.6-6.4,5.9-6.4c2.3,0,3.8,1.2,5,2.5
			l0.2,0.2l2-2.1l-0.1-0.2c-1.4-1.4-3.4-3.1-7-3.1c-4.9,0-9,4.1-9,9.1v0.1c0,5,4,9.1,9,9.1c3.6,0,5.7-1.8,7.1-3.4l0.1-0.2l-1.9-1.8
			L345.9,107.7z"/>
		<path class="st2" d="M358.9,108.9l-6-13.8h-3.3l7.9,17.2c-0.9,2.2-1.8,3-3.2,3c-1,0-1.7-0.2-2.6-0.6l-0.2-0.1l-1,2.4l0.2,0.1
			c1.3,0.6,2.4,0.9,3.7,0.9c2.7,0,4.4-1.4,5.9-5l7.3-17.9h-3.2L358.9,108.9z"/>
		<path class="st2" d="M383,107.7c-1.5,1.7-3.2,2.5-5,2.5c-3.4,0-6-2.8-6-6.4v-0.1c0-3.6,2.6-6.4,5.9-6.4c2.3,0,3.8,1.2,5,2.5
			l0.2,0.2l2-2.1l-0.1-0.2c-1.4-1.4-3.4-3.1-7-3.1c-4.9,0-9,4.1-9,9.1v0.1c0,5,4,9.1,9,9.1c3.6,0,5.7-1.8,7.1-3.4l0.1-0.2l-1.9-1.8
			L383,107.7z"/>
		<rect x="389" y="88" class="st2" width="3" height="24.5"/>
		<path class="st2" d="M404.8,94.6c-4.8,0-8.4,3.9-8.4,9.1c0,5.2,3.8,9.1,8.7,9.1c2.9,0,5.2-1,7.2-3.3l0.2-0.2l-1.9-1.7l-0.2,0.2
			c-1.5,1.6-3.2,2.3-5.2,2.3c-3,0-5.3-2.1-5.7-5.2h13.5l0-0.2c0-0.4,0-0.7,0-0.9C413,98.4,409.7,94.6,404.8,94.6z M404.7,97.2
			c3.3,0,4.9,2.7,5.2,5.3h-10.5C399.9,99.4,402,97.2,404.7,97.2z"/>
	</g>
</g>
</svg>
