<svg id="upload" xmlns="http://www.w3.org/2000/svg" width="19.267" height="20.551" viewBox="0 0 19.267 20.551">
  <g id="Group_780" data-name="Group 780" transform="translate(4.496)">
    <g id="Group_779" data-name="Group 779">
      <path id="Path_419" data-name="Path 419" d="M138.114,5.357,133.619.22a.641.641,0,0,0-.966,0l-4.5,5.138a.642.642,0,0,0,.483,1.065h2.569v8.349a.642.642,0,0,0,.642.642h2.569a.642.642,0,0,0,.642-.642V6.422h2.569a.642.642,0,0,0,.483-1.065Z" transform="translate(-127.998)" fill="#fff"/>
    </g>
  </g>
  <g id="Group_782" data-name="Group 782" transform="translate(0 14.129)">
    <g id="Group_781" data-name="Group 781">
      <path id="Path_420" data-name="Path 420" d="M32.7,352v3.853H18.569V352H16v5.138a1.284,1.284,0,0,0,1.284,1.284h16.7a1.283,1.283,0,0,0,1.284-1.284V352Z" transform="translate(-16 -352)" fill="#fff"/>
    </g>
  </g>
</svg>
