<svg xmlns="http://www.w3.org/2000/svg" width="20.654" height="23.5" viewBox="0 0 20.654 23.5">
  <g id="user_1_" data-name="user (1)" transform="translate(-31)">
    <g id="Group_756" data-name="Group 756" transform="translate(35.131)">
      <g id="Group_755" data-name="Group 755">
        <path id="Path_403" data-name="Path 403" d="M127.2,0a6.2,6.2,0,1,0,6.2,6.2A6.2,6.2,0,0,0,127.2,0Z" transform="translate(-121)" fill="#009fbd"/>
      </g>
    </g>
    <g id="Group_758" data-name="Group 758" transform="translate(31 13.77)">
      <g id="Group_757" data-name="Group 757">
        <path id="Path_404" data-name="Path 404" d="M49.037,302.671A8.833,8.833,0,0,0,42.7,300H39.95a8.833,8.833,0,0,0-6.332,2.671A9.03,9.03,0,0,0,31,309.042a.689.689,0,0,0,.688.688H50.966a.689.689,0,0,0,.688-.688A9.03,9.03,0,0,0,49.037,302.671Z" transform="translate(-31 -300)" fill="#009fbd"/>
      </g>
    </g>
  </g>
</svg>
