<svg xmlns="http://www.w3.org/2000/svg" width="30.297" height="34.844" viewBox="0 0 30.297 34.844">
  <g id="calendar_2_" data-name="calendar (2)" transform="translate(-41.999 -9.769)">
    <path id="Path_651" data-name="Path 651" d="M322.174,256.83a4.367,4.367,0,1,0,4.366-4.366A4.367,4.367,0,0,0,322.174,256.83Zm7.884,0a3.517,3.517,0,1,1-3.517-3.517A3.517,3.517,0,0,1,330.058,256.83Z" transform="translate(-260.342 -225.515)"/>
    <path id="Path_652" data-name="Path 652" d="M366.272,276.293v.135a1.347,1.347,0,0,0-.893,1.241,1.312,1.312,0,0,0,1.311,1.313.464.464,0,1,1,0,.927h-.013a.464.464,0,0,1-.458-.463.425.425,0,0,0-.425-.425.421.421,0,0,0-.42.425,1.347,1.347,0,0,0,.893,1.241v.176a.425.425,0,1,0,.849,0v-.176a1.338,1.338,0,0,0,.883-1.241,1.317,1.317,0,0,0-1.316-1.313.464.464,0,1,1,.461-.464.427.427,0,0,0,.854,0,1.338,1.338,0,0,0-.884-1.241v-.135a.425.425,0,1,0-.849,0Z" transform="translate(-300.489 -247.262)"/>
    <path id="Path_653" data-name="Path 653" d="M369.425,403.383a.425.425,0,0,0-.425.425v.248a.425.425,0,1,0,.849,0v-.248A.425.425,0,0,0,369.425,403.383Z" transform="translate(-303.853 -365.751)"/>
    <path id="Path_654" data-name="Path 654" d="M351.425,403.383a.425.425,0,0,0-.425.425v.248a.425.425,0,1,0,.849,0v-.248A.425.425,0,0,0,351.425,403.383Z" transform="translate(-287.128 -365.751)"/>
    <path id="Path_655" data-name="Path 655" d="M333.425,403.383a.425.425,0,0,0-.425.425v.248a.425.425,0,1,0,.849,0v-.248A.425.425,0,0,0,333.425,403.383Z" transform="translate(-270.402 -365.751)"/>
    <path id="Path_656" data-name="Path 656" d="M315.425,403.383a.425.425,0,0,0-.425.425v.248a.425.425,0,1,0,.849,0v-.248A.425.425,0,0,0,315.425,403.383Z" transform="translate(-253.676 -365.751)"/>
    <path id="Path_657" data-name="Path 657" d="M405.425,403.383a.425.425,0,0,0-.425.425v.248a.425.425,0,1,0,.849,0v-.248A.425.425,0,0,0,405.425,403.383Z" transform="translate(-337.305 -365.751)"/>
    <path id="Path_658" data-name="Path 658" d="M387.425,403.383a.425.425,0,0,0-.425.425v.248a.425.425,0,1,0,.849,0v-.248A.425.425,0,0,0,387.425,403.383Z" transform="translate(-320.579 -365.751)"/>
    <path id="Path_659" data-name="Path 659" d="M441.425,403.383a.425.425,0,0,0-.425.425v.248a.425.425,0,1,0,.849,0v-.248A.425.425,0,0,0,441.425,403.383Z" transform="translate(-370.757 -365.751)"/>
    <path id="Path_660" data-name="Path 660" d="M423.425,403.383a.425.425,0,0,0-.425.425v.248a.425.425,0,1,0,.849,0v-.248A.425.425,0,0,0,423.425,403.383Z" transform="translate(-354.031 -365.751)"/>
    <path id="Path_661" data-name="Path 661" d="M369.425,437.33a.425.425,0,0,0-.425.425V438a.425.425,0,1,0,.849,0v-.248A.425.425,0,0,0,369.425,437.33Z" transform="translate(-303.853 -397.295)"/>
    <path id="Path_662" data-name="Path 662" d="M351.425,437.33a.425.425,0,0,0-.425.425V438a.425.425,0,1,0,.849,0v-.248A.425.425,0,0,0,351.425,437.33Z" transform="translate(-287.128 -397.295)"/>
    <path id="Path_663" data-name="Path 663" d="M333.425,437.33a.425.425,0,0,0-.425.425V438a.425.425,0,1,0,.849,0v-.248A.425.425,0,0,0,333.425,437.33Z" transform="translate(-270.402 -397.295)"/>
    <path id="Path_664" data-name="Path 664" d="M315.425,437.33a.425.425,0,0,0-.425.425V438a.425.425,0,1,0,.849,0v-.248A.425.425,0,0,0,315.425,437.33Z" transform="translate(-253.676 -397.295)"/>
    <path id="Path_665" data-name="Path 665" d="M405.425,437.33a.425.425,0,0,0-.425.425V438a.425.425,0,1,0,.849,0v-.248A.425.425,0,0,0,405.425,437.33Z" transform="translate(-337.305 -397.295)"/>
    <path id="Path_666" data-name="Path 666" d="M387.425,437.33a.425.425,0,0,0-.425.425V438a.425.425,0,0,0,.849,0v-.248A.425.425,0,0,0,387.425,437.33Z" transform="translate(-320.579 -397.295)"/>
    <path id="Path_667" data-name="Path 667" d="M441.425,437.33a.425.425,0,0,0-.425.425V438a.425.425,0,1,0,.849,0v-.248A.425.425,0,0,0,441.425,437.33Z" transform="translate(-370.757 -397.295)"/>
    <path id="Path_668" data-name="Path 668" d="M423.425,437.33a.425.425,0,0,0-.425.425V438a.425.425,0,1,0,.849,0v-.248A.425.425,0,0,0,423.425,437.33Z" transform="translate(-354.031 -397.295)"/>
    <path id="Path_669" data-name="Path 669" d="M369.425,471.277a.425.425,0,0,0-.425.425v.248a.425.425,0,0,0,.849,0V471.7A.425.425,0,0,0,369.425,471.277Z" transform="translate(-303.853 -428.839)"/>
    <path id="Path_670" data-name="Path 670" d="M351.425,471.277a.425.425,0,0,0-.425.425v.248a.425.425,0,0,0,.849,0V471.7A.425.425,0,0,0,351.425,471.277Z" transform="translate(-287.128 -428.839)"/>
    <path id="Path_671" data-name="Path 671" d="M333.425,471.277a.425.425,0,0,0-.425.425v.248a.425.425,0,0,0,.849,0V471.7A.425.425,0,0,0,333.425,471.277Z" transform="translate(-270.402 -428.839)"/>
    <path id="Path_672" data-name="Path 672" d="M315.425,471.277a.425.425,0,0,0-.425.425v.248a.425.425,0,0,0,.849,0V471.7A.425.425,0,0,0,315.425,471.277Z" transform="translate(-253.676 -428.839)"/>
    <path id="Path_673" data-name="Path 673" d="M405.425,471.277a.425.425,0,0,0-.425.425v.248a.425.425,0,0,0,.849,0V471.7A.425.425,0,0,0,405.425,471.277Z" transform="translate(-337.305 -428.839)"/>
    <path id="Path_674" data-name="Path 674" d="M387.425,471.277a.425.425,0,0,0-.425.425v.248a.425.425,0,0,0,.849,0V471.7A.425.425,0,0,0,387.425,471.277Z" transform="translate(-320.579 -428.839)"/>
    <path id="Path_675" data-name="Path 675" d="M441.425,471.277a.425.425,0,0,0-.425.425v.248a.425.425,0,0,0,.849,0V471.7A.425.425,0,0,0,441.425,471.277Z" transform="translate(-370.757 -428.839)"/>
    <path id="Path_676" data-name="Path 676" d="M423.425,471.277a.425.425,0,0,0-.425.425v.248a.425.425,0,0,0,.849,0V471.7A.425.425,0,0,0,423.425,471.277Z" transform="translate(-354.031 -428.839)"/>
    <path id="Path_677" data-name="Path 677" d="M157.525,166.2a1.237,1.237,0,1,0,1.236,1.237,1.237,1.237,0,0,0-1.236-1.237Zm0,1.625a.388.388,0,1,1,.387-.387A.388.388,0,0,1,157.525,167.825Z" transform="translate(-106.198 -145.357)"/>
    <path id="Path_678" data-name="Path 678" d="M222.029,166.2a1.237,1.237,0,1,0,1.236,1.237,1.237,1.237,0,0,0-1.236-1.237Zm0,1.625a.388.388,0,1,1,.387-.387A.388.388,0,0,1,222.029,167.825Z" transform="translate(-166.136 -145.357)"/>
    <path id="Path_679" data-name="Path 679" d="M286.548,168.674a1.237,1.237,0,1,0-1.236-1.237A1.237,1.237,0,0,0,286.548,168.674Zm0-1.625a.388.388,0,1,1-.387.388.388.388,0,0,1,.387-.388Z" transform="translate(-226.09 -145.357)"/>
    <path id="Path_680" data-name="Path 680" d="M351.052,168.674a1.237,1.237,0,1,0-1.236-1.237A1.237,1.237,0,0,0,351.052,168.674Zm0-1.625a.388.388,0,1,1-.387.388.388.388,0,0,1,.387-.388Z" transform="translate(-286.027 -145.357)"/>
    <path id="Path_681" data-name="Path 681" d="M93.02,219.99a1.237,1.237,0,1,0,1.236,1.237A1.237,1.237,0,0,0,93.02,219.99Zm0,1.625a.388.388,0,1,1,.387-.388A.388.388,0,0,1,93.02,221.615Z" transform="translate(-46.259 -195.34)"/>
    <path id="Path_682" data-name="Path 682" d="M157.525,219.99a1.237,1.237,0,1,0,1.236,1.237A1.237,1.237,0,0,0,157.525,219.99Zm0,1.625a.388.388,0,1,1,.387-.388A.388.388,0,0,1,157.525,221.615Z" transform="translate(-106.198 -195.34)"/>
    <path id="Path_683" data-name="Path 683" d="M222.029,219.99a1.237,1.237,0,1,0,1.236,1.237A1.237,1.237,0,0,0,222.029,219.99Zm0,1.625a.388.388,0,1,1,.387-.388A.388.388,0,0,1,222.029,221.615Z" transform="translate(-166.136 -195.34)"/>
    <path id="Path_684" data-name="Path 684" d="M287.785,221.242a1.236,1.236,0,1,0-1.237,1.237A1.236,1.236,0,0,0,287.785,221.242Zm-1.623,0a.387.387,0,1,1,.387.388A.387.387,0,0,1,286.161,221.242Z" transform="translate(-226.09 -195.355)"/>
    <path id="Path_685" data-name="Path 685" d="M93.02,273.779a1.237,1.237,0,1,0,1.236,1.237A1.237,1.237,0,0,0,93.02,273.779Zm0,1.625a.388.388,0,1,1,.387-.387A.388.388,0,0,1,93.02,275.4Z" transform="translate(-46.259 -245.321)"/>
    <path id="Path_686" data-name="Path 686" d="M157.525,273.779a1.237,1.237,0,1,0,1.236,1.237A1.237,1.237,0,0,0,157.525,273.779Zm0,1.625a.388.388,0,1,1,.387-.387A.388.388,0,0,1,157.525,275.4Z" transform="translate(-106.198 -245.321)"/>
    <path id="Path_687" data-name="Path 687" d="M222.029,273.779a1.237,1.237,0,1,0,1.236,1.237A1.237,1.237,0,0,0,222.029,273.779Zm0,1.625a.388.388,0,1,1,.387-.387A.388.388,0,0,1,222.029,275.4Z" transform="translate(-166.136 -245.321)"/>
    <path id="Path_688" data-name="Path 688" d="M93.018,327.57a1.237,1.237,0,1,0,1.236,1.237A1.237,1.237,0,0,0,93.018,327.57Zm0,1.625a.388.388,0,1,1,.387-.388A.388.388,0,0,1,93.018,329.195Z" transform="translate(-46.257 -295.304)"/>
    <path id="Path_689" data-name="Path 689" d="M157.523,327.57a1.237,1.237,0,1,0,1.236,1.237A1.237,1.237,0,0,0,157.523,327.57Zm0,1.625a.388.388,0,1,1,.387-.388A.388.388,0,0,1,157.523,329.195Z" transform="translate(-106.196 -295.304)"/>
    <path id="Path_690" data-name="Path 690" d="M222.027,327.57a1.237,1.237,0,1,0,1.236,1.237A1.237,1.237,0,0,0,222.027,327.57Zm0,1.625a.388.388,0,1,1,.387-.388A.388.388,0,0,1,222.027,329.195Z" transform="translate(-166.134 -295.304)"/>
    <path id="Path_691" data-name="Path 691" d="M68.425,152.169a.425.425,0,0,0-.425.425v.211a.425.425,0,0,0,.849,0v-.211A.425.425,0,0,0,68.425,152.169Z" transform="translate(-24.161 -132.32)"/>
    <path id="Path_692" data-name="Path 692" d="M68.425,174.463a.425.425,0,0,0-.425.425v6.135a.425.425,0,0,0,.849,0v-6.135A.425.425,0,0,0,68.425,174.463Z" transform="translate(-24.161 -153.036)"/>
    <path id="Path_693" data-name="Path 693" d="M71.1,36.543H69.081a5.969,5.969,0,0,0,.737-9.989V15.529a2.421,2.421,0,0,0-2.44-2.416H65.854V11.857a2.053,2.053,0,1,0-4.106,0v1.255H50.069V11.857a2.088,2.088,0,1,0-4.177,0v1.255H44.407A2.394,2.394,0,0,0,42,15.529V36.348a2.432,2.432,0,0,0,2.408,2.461H60.071a1.225,1.225,0,0,0,.279.574,1.219,1.219,0,0,0-.3.8v.8a1.219,1.219,0,0,0,.3.8,1.219,1.219,0,0,0-.3.8v.8a1.242,1.242,0,0,0,1.243,1.226H71.1A1.2,1.2,0,0,0,72.3,43.388v-.8a1.219,1.219,0,0,0-.3-.8,1.219,1.219,0,0,0,.3-.8v-.8a1.219,1.219,0,0,0-.3-.8,1.219,1.219,0,0,0,.3-.8v-.8A1.209,1.209,0,0,0,71.1,36.543ZM69.513,27.4l-.116.113a.424.424,0,1,0,.6.6L70.109,28a5.184,5.184,0,0,1,1.2,2.881h-.163a.425.425,0,0,0,0,.849h.163a5.012,5.012,0,0,1-1.2,2.89L70,34.509a.425.425,0,0,0-.6.6l.119.114a5.184,5.184,0,0,1-2.88,1.2V36.26a.425.425,0,0,0-.849,0v.163a5.011,5.011,0,0,1-2.89-1.2L63,35.113a.426.426,0,1,0-.6-.6l-.113.108a5.012,5.012,0,0,1-1.2-2.891h.163a.425.425,0,1,0,0-.849H61.09a5.184,5.184,0,0,1,1.2-2.88l.113.116a.424.424,0,0,0,.6-.6l-.108-.113a5.01,5.01,0,0,1,2.89-1.2v.163a.425.425,0,1,0,.849,0v-.163a5.184,5.184,0,0,1,2.88,1.2ZM62.6,11.857a1.2,1.2,0,1,1,2.407,0v3.166H62.6Zm-15.857,0a1.239,1.239,0,0,1,2.478,0v3.166H46.742Zm-3.893,3.671a1.544,1.544,0,0,1,1.559-1.567h1.485v1.477a.438.438,0,0,0,.431.435h3.294a.457.457,0,0,0,.452-.435V13.962h11.68v1.477a.429.429,0,0,0,.42.435h3.294a.407.407,0,0,0,.392-.435V13.962h1.524a1.571,1.571,0,0,1,1.591,1.567v2.4H42.848ZM60.05,37.78v.179H44.407a1.582,1.582,0,0,1-1.559-1.611V18.775H68.969v7.238a5.976,5.976,0,1,0-5.654,10.53H61.293A1.252,1.252,0,0,0,60.05,37.78Zm11.4,5.607a.376.376,0,0,1-.376.376H61.276a.376.376,0,0,1-.376-.376v-.8a.376.376,0,0,1,.376-.376H71.07a.376.376,0,0,1,.376.376Zm0-2.407a.376.376,0,0,1-.376.376H61.276a.376.376,0,0,1-.376-.376v-.8a.376.376,0,0,1,.376-.376H71.07a.376.376,0,0,1,.376.376Zm0-2.407a.376.376,0,0,1-.376.376H61.276a.376.376,0,0,1-.376-.376v-.8a.376.376,0,0,1,.376-.376H71.07a.376.376,0,0,1,.376.376Z" transform="translate(0)"/>
  </g>
</svg>
