<svg id="CALL" xmlns="http://www.w3.org/2000/svg" width="26.915" height="26.915" viewBox="0 0 26.915 26.915">
  <path id="Path_639" data-name="Path 639" d="M22.971,3.94a13.457,13.457,0,1,0,3.943,9.514A13.457,13.457,0,0,0,22.971,3.94ZM20.38,18.746l0,0v0l-.682.677a3.589,3.589,0,0,1-3.387.969,11.924,11.924,0,0,1-3.463-1.552,16,16,0,0,1-2.732-2.2,16.123,16.123,0,0,1-2.041-2.476,12.559,12.559,0,0,1-1.534-3.1,3.589,3.589,0,0,1,.9-3.665l.8-.8a.57.57,0,0,1,.806,0l0,0,2.521,2.521a.57.57,0,0,1,0,.806l0,0-1.48,1.48a1.207,1.207,0,0,0-.126,1.57,17.312,17.312,0,0,0,1.772,2.068A17.206,17.206,0,0,0,14.063,17a1.216,1.216,0,0,0,1.552-.135l1.431-1.453a.57.57,0,0,1,.806,0l0,0,2.526,2.53A.57.57,0,0,1,20.38,18.746Z" transform="translate(0 0)"/>
</svg>
