<svg xmlns="http://www.w3.org/2000/svg" width="37.645" height="33.087" viewBox="0 0 37.645 33.087">
  <g id="Group_2347" data-name="Group 2347" transform="translate(-1753 -127.828)">
    <path id="Path_17" data-name="Path 17" d="M12.205,22.058H32.131a1.1,1.1,0,0,0,1.06-.8L37.6,5.817a1.1,1.1,0,0,0-1.06-1.406H9.659L8.871.864A1.1,1.1,0,0,0,7.794,0H1.1a1.1,1.1,0,0,0,0,2.206H6.908l3.983,17.922a3.307,3.307,0,0,0,1.314,6.342H32.131a1.1,1.1,0,0,0,0-2.206H12.205a1.1,1.1,0,0,1,0-2.206Zm0,0" transform="translate(1753 127.828)" fill="#63317c"/>
    <path id="Path_18" data-name="Path 18" d="M151,363.313A3.309,3.309,0,1,0,154.309,360,3.312,3.312,0,0,0,151,363.313Zm0,0" transform="translate(1613.102 -205.707)" fill="#63317c"/>
    <path id="Path_19" data-name="Path 19" d="M362,363.313A3.309,3.309,0,1,0,365.313,360,3.312,3.312,0,0,0,362,363.313Zm0,0" transform="translate(1417.612 -205.707)" fill="#63317c"/>
  </g>
</svg>
