<svg xmlns="http://www.w3.org/2000/svg" xmlns:xlink="http://www.w3.org/1999/xlink" width="123" height="122" viewBox="0 0 123 122">
  <defs>
    <clipPath id="clip-path">
      <rect width="123" height="122" fill="none"/>
    </clipPath>
  </defs>
  <g id="Repeat_Grid_1" data-name="Repeat Grid 1" clip-path="url(#clip-path)">
    <g id="Group_2167" data-name="Group 2167" transform="translate(0.372 -0.498)">
      <ellipse id="Ellipse_12" data-name="Ellipse 12" cx="61.5" cy="61" rx="61.5" ry="61" transform="translate(-0.372 0.498)" fill="#fff"/>
      <g id="office-chair-silhouette" transform="translate(38.608 32.858)">
        <path id="Path_154" data-name="Path 154" d="M77.748,22.987A1.526,1.526,0,0,0,76.1,24.339v7.772c0,2-1.774,3.653-4.1,3.987-.521-1.1-2.385-1.871-5-1.871H59.626l.1-.787a8.783,8.783,0,0,0,.059-.991H67c3.64,0,6.37-2.424,6.07-5.388L70.855,5.39C70.552,2.426,67.329,0,63.687,0H50.458C46.816,0,43.6,2.426,43.29,5.389L41.08,27.061c-.3,2.963,2.427,5.388,6.068,5.388h7.214a7.676,7.676,0,0,0,.061.991l.1.787H47.15c-2.611,0-4.477.769-5,1.871-2.324-.338-4.1-1.991-4.1-3.987v-7.77a1.685,1.685,0,0,0-3.3,0v7.772c0,3.728,3.707,6.767,8.271,6.767h.453a12.91,12.91,0,0,0,6.988,1.939h4.87l.879,7.187H51.854c-4.037,0-8.011,1.854-9.049,4.22l-1.218,2.782c-.943.1-1.673.6-1.673,1.222,0,.7.9,1.268,2.015,1.268s2.016-.569,2.016-1.268a1.156,1.156,0,0,0-.723-.948l1.136-2.6c.79-1.806,4.22-3.323,7.491-3.323h4.4v5.724c-.7.2-1.186.635-1.186,1.146,0,.7.905,1.268,2.013,1.268s2.016-.563,2.016-1.268c0-.514-.493-.948-1.19-1.146V49.36h4.4c3.269,0,6.7,1.524,7.488,3.323l1.139,2.6a1.161,1.161,0,0,0-.724.948c0,.7.906,1.268,2.016,1.268s2.016-.569,2.016-1.268c0-.625-.728-1.121-1.674-1.222l-1.217-2.782c-1.039-2.371-5.016-4.22-9.048-4.22H57.94l.881-7.187h4.872a12.877,12.877,0,0,0,6.983-1.939h.453c4.56,0,8.275-3.033,8.275-6.767V24.341A1.536,1.536,0,0,0,77.748,22.987ZM49.063,10.141H65.08a.761.761,0,0,1,.828.676.763.763,0,0,1-.828.676H49.063a.762.762,0,0,1-.825-.676A.761.761,0,0,1,49.063,10.141Zm0,4.056H65.08a.762.762,0,0,1,.828.676.763.763,0,0,1-.828.676H49.063a.761.761,0,0,1-.825-.676A.764.764,0,0,1,49.063,14.2Zm0,5.413a.689.689,0,1,1,0-1.351H65.08a.689.689,0,1,1,0,1.351Z" transform="translate(-34.748 0)" fill="#009fbd"/>
      </g>
    </g>
  </g>
</svg>
