<svg xmlns="http://www.w3.org/2000/svg" width="43.414" height="40.562" viewBox="0 0 43.414 40.562">
  <g id="coupon" transform="matrix(0.788, -0.616, 0.616, 0.788, -64.029, -58.443)">
    <g id="Group_1187" data-name="Group 1187" transform="translate(11.321 117.667)">
      <g id="Group_1186" data-name="Group 1186" transform="translate(0 0)">
        <rect id="Rectangle_1240" data-name="Rectangle 1240" width="2.278" transform="translate(0)"/>
      </g>
    </g>
    <g id="Group_1189" data-name="Group 1189" transform="translate(11.321 118.805)">
      <g id="Group_1188" data-name="Group 1188" transform="translate(0 0)">
        <rect id="Rectangle_1241" data-name="Rectangle 1241" width="2.278" height="2.278" transform="translate(0 0)"/>
      </g>
    </g>
    <g id="Group_1191" data-name="Group 1191" transform="translate(11.321 122.223)">
      <g id="Group_1190" data-name="Group 1190" transform="translate(0 0)">
        <rect id="Rectangle_1242" data-name="Rectangle 1242" width="2.278" height="1.139" transform="translate(0)"/>
      </g>
    </g>
    <g id="Group_1193" data-name="Group 1193" transform="translate(11.321 114.25)">
      <g id="Group_1192" data-name="Group 1192" transform="translate(0 0)">
        <rect id="Rectangle_1243" data-name="Rectangle 1243" width="2.278" height="1.139" transform="translate(0)"/>
      </g>
    </g>
    <g id="Group_1195" data-name="Group 1195" transform="translate(11.321 111.972)">
      <g id="Group_1194" data-name="Group 1194" transform="translate(0 0)">
        <rect id="Rectangle_1244" data-name="Rectangle 1244" width="2.278" transform="translate(0)"/>
      </g>
    </g>
    <g id="Group_1197" data-name="Group 1197" transform="translate(11.321 108.556)">
      <g id="Group_1196" data-name="Group 1196" transform="translate(0 0)">
        <rect id="Rectangle_1245" data-name="Rectangle 1245" width="2.278" height="2.278" transform="translate(0 0)"/>
      </g>
    </g>
    <g id="Group_1199" data-name="Group 1199" transform="translate(11.321 106.277)">
      <g id="Group_1198" data-name="Group 1198" transform="translate(0 0)">
        <rect id="Rectangle_1246" data-name="Rectangle 1246" width="2.278" height="1.139" transform="translate(0 0)"/>
      </g>
    </g>
    <g id="Group_1201" data-name="Group 1201" transform="translate(3.35 106.277)">
      <g id="Group_1200" data-name="Group 1200" transform="translate(0 0)">
        <rect id="Rectangle_1247" data-name="Rectangle 1247" height="1.139" transform="translate(0 0)"/>
      </g>
    </g>
    <g id="Group_1203" data-name="Group 1203" transform="translate(35.24 106.277)">
      <g id="Group_1202" data-name="Group 1202" transform="translate(0 0)">
        <rect id="Rectangle_1248" data-name="Rectangle 1248" height="1.139" transform="translate(0 0)"/>
      </g>
    </g>
    <g id="Group_1205" data-name="Group 1205" transform="translate(35.24 122.223)">
      <g id="Group_1204" data-name="Group 1204" transform="translate(0 0)">
        <rect id="Rectangle_1249" data-name="Rectangle 1249" height="1.139"/>
      </g>
    </g>
    <g id="Group_1207" data-name="Group 1207" transform="translate(3.35 122.223)">
      <g id="Group_1206" data-name="Group 1206" transform="translate(0 0)">
        <rect id="Rectangle_1250" data-name="Rectangle 1250" height="1.139"/>
      </g>
    </g>
    <g id="Group_1209" data-name="Group 1209" transform="translate(0 104)">
      <g id="Group_1208" data-name="Group 1208" transform="translate(0 0)">
        <path id="Path_641" data-name="Path 641" d="M37.55,111.637a.636.636,0,0,0,.636-.636v-6.364A.636.636,0,0,0,37.55,104H.636a.636.636,0,0,0-.636.636V111a.636.636,0,0,0,.636.636,3.182,3.182,0,0,1,0,6.364.636.636,0,0,0-.636.636V125a.636.636,0,0,0,.636.636H37.55a.636.636,0,0,0,.636-.636v-6.364A.636.636,0,0,0,37.55,118a3.182,3.182,0,0,1,0-6.364Zm-4.413,3.815a4.455,4.455,0,0,0,3.777,3.777v5.137H1.273V119.23a4.455,4.455,0,0,0,0-8.82v-5.137H36.914v5.137A4.455,4.455,0,0,0,33.137,115.453Z" transform="translate(0 -104)"/>
      </g>
    </g>
    <g id="Group_1211" data-name="Group 1211" transform="translate(16.548 108.455)">
      <g id="Group_1210" data-name="Group 1210">
        <path id="Path_642" data-name="Path 642" d="M210.546,160a2.546,2.546,0,1,0,2.546,2.546A2.546,2.546,0,0,0,210.546,160Zm0,3.819a1.273,1.273,0,1,1,1.273-1.273A1.273,1.273,0,0,1,210.546,163.819Z" transform="translate(-208 -160)"/>
      </g>
    </g>
    <g id="Group_1213" data-name="Group 1213" transform="translate(24.185 116.093)">
      <g id="Group_1212" data-name="Group 1212" transform="translate(0 0)">
        <path id="Path_643" data-name="Path 643" d="M306.546,256a2.546,2.546,0,1,0,2.546,2.546A2.546,2.546,0,0,0,306.546,256Zm0,3.819a1.273,1.273,0,1,1,1.273-1.273A1.273,1.273,0,0,1,306.546,259.819Z" transform="translate(-304 -256)"/>
      </g>
    </g>
    <g id="Group_1215" data-name="Group 1215" transform="translate(17.371 109.277)">
      <g id="Group_1214" data-name="Group 1214" transform="translate(0 0)">
        <rect id="Rectangle_1251" data-name="Rectangle 1251" width="14.401" height="1.273" transform="translate(0 10.183) rotate(-45)"/>
      </g>
    </g>
  </g>
</svg>
