<svg xmlns="http://www.w3.org/2000/svg" width="35.757" height="31.286" viewBox="0 0 35.757 31.286">
  <g id="credit-card_1_" data-name="credit-card (1)" transform="translate(0 -32.008)">
    <g id="Group_1222" data-name="Group 1222" transform="translate(0 38.711)">
      <g id="Group_1221" data-name="Group 1221" transform="translate(0 0)">
        <path id="Path_697" data-name="Path 697" d="M15.644,130.227v-2.235H2.235A2.238,2.238,0,0,0,0,130.227v4.47H16.115A20.009,20.009,0,0,1,15.644,130.227Z" transform="translate(0 -127.992)" fill="#fff"/>
      </g>
    </g>
    <g id="Group_1224" data-name="Group 1224" transform="translate(0 49.885)">
      <g id="Group_1223" data-name="Group 1223">
        <path id="Path_698" data-name="Path 698" d="M35.665,287.992a20.1,20.1,0,0,1-7.178,6.26,3.358,3.358,0,0,1-3.332,0,20.2,20.2,0,0,1-7.18-6.264H0v11.174A2.237,2.237,0,0,0,2.235,301.4H33.522a2.236,2.236,0,0,0,2.235-2.235V287.992Zm-25.609,6.7H5.587a1.117,1.117,0,0,1,0-2.235h4.47a1.117,1.117,0,0,1,0,2.235Z" transform="translate(0 -287.992)" fill="#fff"/>
      </g>
    </g>
    <g id="Group_1226" data-name="Group 1226" transform="translate(17.878 32.008)">
      <g id="Group_1225" data-name="Group 1225" transform="translate(0 0)">
        <path id="Path_699" data-name="Path 699" d="M273.2,35.451,265.379,32.1a1.121,1.121,0,0,0-.883,0l-7.822,3.352A1.115,1.115,0,0,0,256,36.476v4.47c0,6.148,2.273,9.742,8.383,13.261a1.123,1.123,0,0,0,1.113,0c6.11-3.511,8.383-7.1,8.383-13.261v-4.47A1.113,1.113,0,0,0,273.2,35.451Zm-4.036,5.077-4.47,5.587a1.13,1.13,0,0,1-.874.418h-.047a1.122,1.122,0,0,1-.883-.5l-2.235-3.352a1.117,1.117,0,1,1,1.859-1.238l1.388,2.081,3.513-4.394a1.118,1.118,0,0,1,1.748,1.395Z" transform="translate(-256 -32.008)" fill="#fff"/>
      </g>
    </g>
  </g>
</svg>
