<svg xmlns="http://www.w3.org/2000/svg" width="123" height="122" viewBox="0 0 123 122">
  <g id="Group_2162" data-name="Group 2162" transform="translate(0.387 -0.498)">
    <ellipse id="Ellipse_17" data-name="Ellipse 17" cx="61.5" cy="61" rx="61.5" ry="61" transform="translate(-0.387 0.498)" fill="#fff"/>
    <path id="XMLID_3_" d="M35.169,21.83a8.019,8.019,0,0,1,4.43.086,14.969,14.969,0,0,0,3.307.464,8.659,8.659,0,0,0,4.6-1.345,9.093,9.093,0,0,0,4.2-6.676,10.692,10.692,0,0,0-3.358-8.887A13.35,13.35,0,0,0,38.842,1.55a13.723,13.723,0,0,0-9.76,4.059,19.9,19.9,0,0,0-5.438,13.276,4.763,4.763,0,0,1-1.822-2.268,7.538,7.538,0,0,1,.086-4.431c.466-2.112,1.045-4.74-.88-7.909A9.149,9.149,0,0,0,13.2.011,11.021,11.021,0,0,0,5.463,3.437,13.641,13.641,0,0,0,5.6,22.705a20.2,20.2,0,0,0,13.261,5.459,4.753,4.753,0,0,1-2.254,1.8,7.974,7.974,0,0,1-4.431-.086,14.973,14.973,0,0,0-3.308-.465,8.657,8.657,0,0,0-4.6,1.345,9.094,9.094,0,0,0-4.2,6.677,10.692,10.692,0,0,0,3.358,8.887,13.35,13.35,0,0,0,9.508,3.921,13.724,13.724,0,0,0,9.76-4.059A19.9,19.9,0,0,0,28.135,32.91a4.769,4.769,0,0,1,1.822,2.268,7.537,7.537,0,0,1-.086,4.431c-.466,2.112-1.045,4.74.881,7.909a9.148,9.148,0,0,0,7.823,4.267,11.021,11.021,0,0,0,7.741-3.426,13.642,13.642,0,0,0-.139-19.268,20.2,20.2,0,0,0-13.261-5.458A4.749,4.749,0,0,1,35.169,21.83ZM28.1,28.107a3.2,3.2,0,0,1-4.419,0,3.125,3.125,0,1,1,4.419,0Z" transform="translate(35.322 35.311)" fill="#009fbd"/>
  </g>
</svg>
