<svg xmlns="http://www.w3.org/2000/svg" width="41.001" height="30.751" viewBox="0 0 41.001 30.751">
  <g id="free-delivery_1_" data-name="free-delivery (1)" transform="translate(0 -64)">
    <g id="Group_1220" data-name="Group 1220" transform="translate(0 64)">
      <g id="Group_1219" data-name="Group 1219" transform="translate(0 0)">
        <path id="Path_695" data-name="Path 695" d="M171.52,192h-.854v1.708h.854a.854.854,0,1,0,0-1.708Z" transform="translate(-156.999 -181.75)" fill="#fff"/>
        <path id="Path_696" data-name="Path 696" d="M40.751,76.209l-8.542-8.542a.854.854,0,0,0-.6-.25H23.917V64.854A.854.854,0,0,0,23.063,64H3.417A3.421,3.421,0,0,0,0,67.417V88.771a2.565,2.565,0,0,0,2.563,2.563H4.586a5.094,5.094,0,0,0,9.62,0H26.795a5.094,5.094,0,0,0,9.621,0h1.169A3.421,3.421,0,0,0,41,87.917v-11.1A.854.854,0,0,0,40.751,76.209ZM5.125,80.23V73.4a.854.854,0,0,1,.854-.854H9.4a.854.854,0,0,1,0,1.708H6.834v1.708H8.542a.854.854,0,1,1,0,1.708H6.833V80.23a.854.854,0,1,1-1.708,0ZM9.4,93.042a3.417,3.417,0,1,1,3.417-3.417A3.421,3.421,0,0,1,9.4,93.042Zm7.688-14.521v1.708a.854.854,0,0,1-1.708,0V78.521a.855.855,0,0,0-.854-.854h-.854v2.563a.854.854,0,0,1-1.708,0V73.4a.854.854,0,0,1,.854-.854h1.708a2.561,2.561,0,0,1,1.909,4.271A2.55,2.55,0,0,1,17.084,78.521Zm5.125-2.563a.854.854,0,0,1,0,1.708H20.5v1.708h2.563a.854.854,0,0,1,0,1.708H19.646a.854.854,0,0,1-.854-.854V73.4a.854.854,0,0,1,.854-.854h3.417a.854.854,0,0,1,0,1.708H20.5v1.708h1.708Zm4.271,5.125a.854.854,0,0,1-.854-.854V73.4a.854.854,0,0,1,.854-.854H29.9a.854.854,0,0,1,0,1.708H27.334v1.708h1.708a.854.854,0,1,1,0,1.708H27.334v1.708H29.9a.854.854,0,0,1,0,1.708H26.48ZM31.6,93.042a3.417,3.417,0,1,1,3.417-3.417A3.421,3.421,0,0,1,31.6,93.042Z" transform="translate(0 -64)" fill="#fff"/>
      </g>
    </g>
  </g>
</svg>
