<svg xmlns="http://www.w3.org/2000/svg" width="123" height="122" viewBox="0 0 123 122">
  <g id="Group_2161" data-name="Group 2161" transform="translate(0.391 -0.498)">
    <ellipse id="Ellipse_18" data-name="Ellipse 18" cx="61.5" cy="61" rx="61.5" ry="61" transform="translate(-0.39 0.498)" fill="#fff"/>
    <g id="electric-generator" transform="translate(36.144 38.608)">
      <path id="Path_160" data-name="Path 160" d="M48.64,373.938H47.172V371H2.936v2.936H1.468A1.468,1.468,0,0,0,0,375.406v5.872a1.468,1.468,0,0,0,1.468,1.468H48.64a1.468,1.468,0,0,0,1.468-1.468v-5.872A1.468,1.468,0,0,0,48.64,373.938Z" transform="translate(0 -336.748)" fill="#009fbd"/>
      <path id="Path_161" data-name="Path 161" d="M299.311,41H286V61.548h13.31Zm-3.347,12.351-1.982,4.4a1.468,1.468,0,0,1-2.677-1.207l1.048-2.325h-1.667a1.468,1.468,0,0,1-1.341-2.064l1.958-4.4a1.468,1.468,0,0,1,2.683,1.192l-1.04,2.34h1.68a1.468,1.468,0,0,1,1.338,2.071Z" transform="translate(-258.011 -39.039)" fill="#009fbd"/>
      <path id="Path_162" data-name="Path 162" d="M91,131h10.276v5.872H91Z" transform="translate(-82.091 -120.234)" fill="#009fbd"/>
      <path id="Path_163" data-name="Path 163" d="M48.64,22.953H47.172v-.489a1.468,1.468,0,0,0-2.936-.008V44.973a1.468,1.468,0,0,1-1.468,1.468H26.522a1.468,1.468,0,0,1-1.468-1.468V22.953H5.872v-.489a1.468,1.468,0,1,0-2.936,0v.489H1.468A1.468,1.468,0,0,0,0,24.421V50.846a1.468,1.468,0,0,0,1.468,1.468H48.64a1.468,1.468,0,0,0,1.468-1.468V24.421A1.468,1.468,0,0,0,48.64,22.953ZM20.65,46.442H7.438a1.468,1.468,0,1,1,0-2.936H20.65a1.468,1.468,0,1,1,0,2.936Zm1.468-7.34A1.468,1.468,0,0,1,20.65,40.57H7.438A1.468,1.468,0,0,1,5.97,39.1V30.294a1.468,1.468,0,0,1,1.468-1.468H20.65a1.468,1.468,0,0,1,1.468,1.468Z" transform="translate(0 -20.996)" fill="#009fbd"/>
    </g>
  </g>
</svg>
