<svg xmlns="http://www.w3.org/2000/svg" width="33.656" height="36.287" viewBox="0 0 33.656 36.287">
  <g id="gift-box" transform="translate(-0.013 0.001)">
    <path id="Path_644" data-name="Path 644" d="M130.076,37.949a.6.6,0,0,0,.576-.772,10.593,10.593,0,0,0-2.183-3.986,3.345,3.345,0,0,0-3.176-.972.6.6,0,0,0-.347.347,1.506,1.506,0,0,0-.073.277,2.307,2.307,0,0,0-.03.339v.01a3.628,3.628,0,0,0,1.075,2.55,10.6,10.6,0,0,0,3.985,2.181.63.63,0,0,0,.173.026ZM126.77,34.89a2.484,2.484,0,0,1-.551-.838v-.006c-.026-.067-.049-.134-.069-.2-.01-.035-.018-.068-.026-.1s-.017-.06-.023-.09-.007-.042-.011-.064a2.288,2.288,0,0,1-.037-.272,2.484,2.484,0,0,1,1.57.721,8.167,8.167,0,0,1,1.425,2.278,8.166,8.166,0,0,1-2.281-1.43Zm0,0" transform="translate(-115.453 -29.723)"/>
    <path id="Path_645" data-name="Path 645" d="M33.067,8.641H23.79a8.412,8.412,0,0,0,1.126-.921c2.15-2.156,2.22-5.426.847-6.8s-4.642-1.3-6.8.848A11.792,11.792,0,0,0,16.84,5.025a11.777,11.777,0,0,0-2.124-3.259C12.56-.383,9.291-.454,7.918.919s-1.3,4.643.847,6.8a8.449,8.449,0,0,0,1.126.921H.614a.6.6,0,0,0-.6.6v6.01a.6.6,0,0,0,.6.6h1.2V33.281a3.009,3.009,0,0,0,3,3H28.86a3.009,3.009,0,0,0,3-3V15.853h1.2a.6.6,0,0,0,.6-.6V9.242a.6.6,0,0,0-.6-.6ZM19.813,2.617C21.54.9,24.06.915,24.914,1.769s.874,3.372-.848,5.1A10.065,10.065,0,0,1,21.4,8.641H17.808V8.6c0-.137-.01-.276-.023-.416,0-.046-.01-.092-.016-.139q-.021-.173-.051-.345c-.006-.04-.013-.081-.02-.12-.029-.15-.06-.3-.1-.439,0-.021-.01-.038-.015-.06-.032-.124-.065-.24-.1-.36l-.014-.051a11.459,11.459,0,0,1,2.339-4.054Zm-.569,12.033H14.436V9.843h4.808ZM9.615,6.87c-1.722-1.728-1.7-4.246-.848-5.1s3.372-.874,5.1.846a11.544,11.544,0,0,1,2.4,4.236c.068.211.12.413.169.61.014.056.025.111.037.166.033.147.059.287.078.421.006.045.015.092.02.137a3.885,3.885,0,0,1,.031.452H12.281A10.073,10.073,0,0,1,9.615,6.87Zm-8.4,2.973h12.02v4.808H1.215Zm1.8,23.439V15.853H14.436V35.084H4.821a1.8,1.8,0,0,1-1.8-1.8Zm12.621,1.8V15.853h2.4V35.084Zm15.025-1.8a1.8,1.8,0,0,1-1.8,1.8H19.244V15.853H30.663Zm1.8-18.631H20.446V9.843h12.02Zm0,0" transform="translate(0 0)"/>
    <path id="Path_646" data-name="Path 646" d="M246.108,38a.6.6,0,0,0,.171-.025,10.559,10.559,0,0,0,3.987-2.185,3.4,3.4,0,0,0,.974-3.178.6.6,0,0,0-.345-.345,3.4,3.4,0,0,0-3.178.974,10.567,10.567,0,0,0-2.185,3.987.6.6,0,0,0,.576.772Zm2.459-3.909a2.493,2.493,0,0,1,1.571-.721,2.49,2.49,0,0,1-.721,1.571,8.124,8.124,0,0,1-2.284,1.433,8.119,8.119,0,0,1,1.434-2.283Zm0,0" transform="translate(-227.052 -29.777)"/>
  </g>
</svg>
