<svg xmlns="http://www.w3.org/2000/svg" width="27.752" height="24.5" viewBox="0 0 27.752 24.5">
  <path id="Path_1" data-name="Path 1" d="M20.381,30a6.571,6.571,0,0,0-4.1,1.418,9.348,9.348,0,0,0-2.4,2.887,9.347,9.347,0,0,0-2.4-2.887A6.571,6.571,0,0,0,7.372,30C3.169,30,0,33.437,0,38,0,42.92,3.954,46.29,9.939,51.39c1.016.866,2.169,1.848,3.366,2.9a.868.868,0,0,0,1.142,0c1.2-1.047,2.35-2.029,3.367-2.9C23.8,46.29,27.752,42.92,27.752,38,27.752,33.437,24.583,30,20.381,30Z" transform="translate(0 -30)" fill="#fff"/>
</svg>
