<svg xmlns="http://www.w3.org/2000/svg" width="9.275" height="15.703" viewBox="0 0 9.275 15.703">
  <g id="down-arrow" transform="translate(109.973) rotate(90)">
    <g id="Group_1218" data-name="Group 1218" transform="translate(0 100.698)">
      <path id="Path_694" data-name="Path 694" d="M15.452,101.473l-.514-.518a.861.861,0,0,0-1.215,0l-5.868,5.868-5.874-5.874a.861.861,0,0,0-1.215,0l-.515.515a.86.86,0,0,0,0,1.215L7.245,109.7a.878.878,0,0,0,.609.276h0a.878.878,0,0,0,.607-.276l6.988-7a.868.868,0,0,0,.251-.614A.859.859,0,0,0,15.452,101.473Z" transform="translate(0 -100.698)"/>
    </g>
  </g>
</svg>
