<svg xmlns="http://www.w3.org/2000/svg" width="123" height="122" viewBox="0 0 123 122">
  <g id="Group_2164" data-name="Group 2164" transform="translate(0.379 -0.498)">
    <ellipse id="Ellipse_14" data-name="Ellipse 14" cx="61.5" cy="61" rx="61.5" ry="61" transform="translate(-0.379 0.498)" fill="#fff"/>
    <g id="light-bulb" transform="translate(32.858 32.036)">
      <path id="XMLID_49_" d="M44.759,51.445v1.72a2.728,2.728,0,0,1-2.314,2.7l-.424,1.563a1.945,1.945,0,0,1-1.878,1.441h-4.2a1.945,1.945,0,0,1-1.878-1.441l-.412-1.563a2.74,2.74,0,0,1-2.326-2.713v-1.72a1.654,1.654,0,0,1,1.66-1.66H43.1A1.672,1.672,0,0,1,44.759,51.445ZM52.547,28.26a14.43,14.43,0,0,1-4.07,10.066,13.3,13.3,0,0,0-3.561,7.219,2.4,2.4,0,0,1-2.374,2.023h-9a2.375,2.375,0,0,1-2.362-2.011,13.447,13.447,0,0,0-3.586-7.244A14.5,14.5,0,1,1,52.547,28.26ZM39.683,19.478a1.636,1.636,0,0,0-1.635-1.635A10.476,10.476,0,0,0,27.582,28.309a1.635,1.635,0,1,0,3.271,0,7.2,7.2,0,0,1,7.2-7.2A1.628,1.628,0,0,0,39.683,19.478ZM38.048,9a1.636,1.636,0,0,0,1.635-1.635V1.635a1.635,1.635,0,1,0-3.271,0v5.73A1.636,1.636,0,0,0,38.048,9ZM18.8,28.248a1.636,1.636,0,0,0-1.635-1.635h-5.73a1.635,1.635,0,1,0,0,3.271h5.73A1.628,1.628,0,0,0,18.8,28.248Zm45.861-1.635h-5.73a1.635,1.635,0,1,0,0,3.271h5.73a1.635,1.635,0,1,0,0-3.271ZM22.131,41.863l-4.058,4.058a1.632,1.632,0,0,0,2.3,2.314l4.058-4.058a1.632,1.632,0,1,0-2.3-2.314ZM52.814,15.117a1.633,1.633,0,0,0,1.151-.472l4.058-4.058a1.636,1.636,0,1,0-2.314-2.314l-4.058,4.058a1.63,1.63,0,0,0,0,2.314A1.661,1.661,0,0,0,52.814,15.117Zm-30.683-.485a1.632,1.632,0,0,0,2.3-2.314L20.375,8.261a1.636,1.636,0,1,0-2.314,2.314Zm31.833,27.23a1.636,1.636,0,0,0-2.314,2.314l4.058,4.058a1.632,1.632,0,1,0,2.3-2.314Z" transform="translate(-9.8)" fill="#009fbd"/>
    </g>
  </g>
</svg>
