<svg xmlns="http://www.w3.org/2000/svg" width="26.902" height="23.984" viewBox="0 0 26.902 23.984">
  <g id="like" transform="translate(1 1)">
    <g id="Group_1" data-name="Group 1" transform="translate(0 0)">
      <path id="Path_1" data-name="Path 1" d="M18.287,30a5.9,5.9,0,0,0-3.682,1.273,8.388,8.388,0,0,0-2.154,2.591A8.387,8.387,0,0,0,10.3,31.273,5.9,5.9,0,0,0,6.615,30C2.844,30,0,33.084,0,37.175c0,4.419,3.548,7.442,8.918,12.019.912.777,1.946,1.658,3.02,2.6a.778.778,0,0,0,1.024,0c1.075-.94,2.108-1.821,3.021-2.6,5.37-4.576,8.918-7.6,8.918-12.018C24.9,33.084,22.058,30,18.287,30Z" transform="translate(0 -30)" fill="none" stroke="#009fbd" stroke-width="2"/>
    </g>
  </g>
</svg>
