<svg id="location_1_" data-name="location (1)" xmlns="http://www.w3.org/2000/svg" width="24" height="24" viewBox="0 0 24 24">
  <path id="Path_474" data-name="Path 474" d="M21.953,357.2a.7.7,0,1,0-.677,1.232c.838.46,1.318.97,1.318,1.4,0,.525-.744,1.339-2.832,2.048A25.107,25.107,0,0,1,12,362.969a25.107,25.107,0,0,1-7.762-1.087c-2.088-.709-2.832-1.523-2.832-2.048,0-.429.48-.939,1.318-1.4a.7.7,0,1,0-.677-1.233C1.113,357.715,0,358.588,0,359.834c0,.955.657,2.317,3.786,3.38A26.527,26.527,0,0,0,12,364.375a26.527,26.527,0,0,0,8.214-1.162c3.129-1.063,3.786-2.425,3.786-3.38C24,358.588,22.887,357.715,21.953,357.2Z" transform="translate(0 -340.375)" fill="#888"/>
  <path id="Path_475" data-name="Path 475" d="M89.242,344.98a22.846,22.846,0,0,0,10.617,0c1.746-.493,2.632-1.207,2.632-2.122s-.885-1.629-2.632-2.122c-.388-.11-.809-.206-1.257-.288q-.365.631-.765,1.3c.5.074.962.166,1.385.273a3.591,3.591,0,0,1,1.851.837,3.59,3.59,0,0,1-1.851.837,19.413,19.413,0,0,1-4.43.5c-.08.006-.16.009-.241.009s-.161,0-.241-.009a19.413,19.413,0,0,1-4.43-.5,3.59,3.59,0,0,1-1.851-.837,3.591,3.591,0,0,1,1.851-.837c.423-.108.889-.2,1.385-.273q-.4-.668-.765-1.3c-.448.082-.87.178-1.257.288-1.746.493-2.632,1.207-2.632,2.122S87.5,344.487,89.242,344.98Z" transform="translate(-82.55 -324.49)" fill="#888"/>
  <path id="Path_476" data-name="Path 476" d="M123.1,18.311a1.77,1.77,0,0,0,1.521-.853c2.288-3.743,5.015-8.677,5.015-10.922a6.536,6.536,0,0,0-13.072,0c0,2.245,2.727,7.178,5.015,10.922A1.77,1.77,0,0,0,123.1,18.311ZM120.469,6.087A2.627,2.627,0,1,1,123.1,8.715,2.63,2.63,0,0,1,120.469,6.087Z" transform="translate(-111.096)" fill="#888"/>
</svg>
