<svg xmlns="http://www.w3.org/2000/svg" width="30.442" height="25.461" viewBox="0 0 30.442 25.461">
  <g id="Group_2138" data-name="Group 2138" transform="translate(-1133 -19)">
    <path id="Path_724" data-name="Path 724" d="M36,43h1.107v1.107H36Z" transform="translate(1115.265 -1.86)" fill="#fff"/>
    <path id="Path_725" data-name="Path 725" d="M40,43h1.107v1.107H40Z" transform="translate(1113.479 -1.86)" fill="#fff"/>
    <path id="Path_717" data-name="Path 717" d="M10.712,19.62a2.119,2.119,0,0,0-3,0l-.1.1a2.135,2.135,0,0,0-.62,1.5A2.884,2.884,0,0,0,7.54,22.9l1.674,2.342L10.887,22.9a2.881,2.881,0,0,0,.541-1.686,2.135,2.135,0,0,0-.62-1.5Z" transform="translate(1128.214 8.856)" fill="#fff"/>
    <path id="Path_712" data-name="Path 712" d="M50.856,13.428a4.428,4.428,0,1,0-4.428,4.428A4.433,4.433,0,0,0,50.856,13.428ZM45.712,15.48a.553.553,0,0,1-.783,0l-1.107-1.107.783-.783.716.716,2.93-2.93.783.783Z" transform="translate(1112.586 13.321)" fill="#fff"/>
    <path id="Path_718" data-name="Path 718" d="M32,20.645l.716-.716a.553.553,0,0,1,.783,0l.716.716V17H32Z" transform="translate(1117.051 9.749)" fill="#fff"/>
    <path id="Path_711" data-name="Path 711" d="M19.6,5.214A2.216,2.216,0,0,0,17.391,3H5.214A2.216,2.216,0,0,0,3,5.214V6.321H19.6Zm-6.642,0H9.642V4.107h3.321Z" transform="translate(1130 16)" fill="#fff"/>
    <path id="Path_713" data-name="Path 713" d="M12.963,25.944V13.767a.553.553,0,0,1,.553-.553H19.6V11H3V32.033H19.6V26.5H13.516A.553.553,0,0,1,12.963,25.944ZM7.981,29.819H6.874V28.712H7.981Zm0-2.214H6.874V26.5H7.981Zm0-2.214H6.874V24.284H7.981ZM10.2,29.819H9.088V28.712H10.2ZM10,19.972,7.878,22.945a.553.553,0,0,1-.9,0L4.854,19.972a3.977,3.977,0,0,1-.747-2.33,3.248,3.248,0,0,1,.945-2.281l.1-.1a3.226,3.226,0,0,1,4.562,0l.1.1a3.248,3.248,0,0,1,.945,2.281A3.981,3.981,0,0,1,10,19.972Zm2.407,9.847H11.3V28.712h1.107Zm5.535-1.107h1.107v1.107H17.944Zm-2.214,0h1.107v1.107H15.73Zm-1.107,1.107H13.516V28.712h1.107Z" transform="translate(1130 12.428)" fill="#fff"/>
    <path id="Path_719" data-name="Path 719" d="M27.819,22.373a.553.553,0,0,1-.945-.391V17H23v8.856H35.177v-4.07A5.533,5.533,0,0,1,32.409,17H31.3v4.981a.554.554,0,0,1-.342.511.547.547,0,0,1-.212.042.554.554,0,0,1-.391-.162L29.088,21.1Z" transform="translate(1121.07 9.749)" fill="#fff"/>
    <path id="Path_721" data-name="Path 721" d="M23,35H35.177v1.107H23Z" transform="translate(1121.07 1.712)" fill="#fff"/>
  </g>
</svg>
