<svg xmlns="http://www.w3.org/2000/svg" width="33.939" height="38" viewBox="0 0 33.939 38">
  <g id="reward" transform="translate(-27.356 0.001)">
    <g id="Group_1217" data-name="Group 1217" transform="translate(27.356 -0.001)">
      <g id="Group_1216" data-name="Group 1216" transform="translate(0 0)">
        <path id="Path_647" data-name="Path 647" d="M60.91,318.731a2.249,2.249,0,0,0-3.028-.645l-8.565,3.771v-.026a.575.575,0,0,0,0-.062,3.268,3.268,0,0,0-2.8-2.919l-.014,0-5.695-.656a7.044,7.044,0,0,1-2.909-1.226,10.786,10.786,0,0,0-5.441-1.475H32.1v-.576a1.54,1.54,0,0,0-1.538-1.538H28.894a1.54,1.54,0,0,0-1.538,1.538v10.647a1.54,1.54,0,0,0,1.538,1.538h1.667a1.539,1.539,0,0,0,1.534-1.448l5.574,2.075a6.209,6.209,0,0,0,2.172.391h7.681a6.218,6.218,0,0,0,3.321-.959l9.6-5.419a2.229,2.229,0,0,0,.461-3.01ZM59.844,320.8l-9.56,5.394-.024.015a5.106,5.106,0,0,1-2.737.794H39.842a5.1,5.1,0,0,1-1.784-.321L32.1,324.467v-4.039a.557.557,0,1,0-1.113,0v5.135a.425.425,0,0,1-.425.425H28.894a.425.425,0,0,1-.425-.425V314.916a.425.425,0,0,1,.425-.425h1.667a.425.425,0,0,1,.425.425v2.909a.557.557,0,1,0,1.113,0v-1.22h.355a9.672,9.672,0,0,1,4.879,1.322,8.007,8.007,0,0,0,3.322,1.368l.014,0,5.694.656a2.157,2.157,0,0,1,1.839,1.9l0,.309a47.9,47.9,0,0,1-6.684-.2l-.986-.144a.557.557,0,1,0-.161,1.1l.986.144c2.249.328,3.546.168,7.394.21a.573.573,0,0,0,.224-.047l9.363-4.123.014-.006a1.2,1.2,0,0,1,1.639.261A1.134,1.134,0,0,1,59.844,320.8Z" transform="translate(-27.356 -290.119)"/>
        <path id="Path_648" data-name="Path 648" d="M108.925,12.878a1.314,1.314,0,0,1,.4,1.5,2.432,2.432,0,0,0,1.895,3.281,1.314,1.314,0,0,1,.894.571l-2.607,5.054a.864.864,0,0,0,.966,1.238l2.843-.67,1.1,2.7a.856.856,0,0,0,.762.537h.04a.855.855,0,0,0,.767-.468l2.44-4.73a2.435,2.435,0,0,0,1.144,0l2.44,4.73a.855.855,0,0,0,.767.468h.04a.856.856,0,0,0,.762-.537l1.1-2.7,2.843.67a.864.864,0,0,0,.966-1.238l-2.607-5.054a1.314,1.314,0,0,1,.894-.571,2.432,2.432,0,0,0,1.895-3.281,1.314,1.314,0,0,1,.4-1.5,2.432,2.432,0,0,0,0-3.789,1.314,1.314,0,0,1-.4-1.5A2.432,2.432,0,0,0,126.783,4.3a1.314,1.314,0,0,1-1.1-1.1A2.432,2.432,0,0,0,122.4,1.309a1.314,1.314,0,0,1-1.5-.4,2.432,2.432,0,0,0-3.789,0,1.314,1.314,0,0,1-1.5.4A2.432,2.432,0,0,0,112.323,3.2a1.314,1.314,0,0,1-1.1,1.1,2.432,2.432,0,0,0-1.895,3.281,1.314,1.314,0,0,1-.4,1.5,2.432,2.432,0,0,0,0,3.789Zm6.324,12.762-.979-2.4a.86.86,0,0,0-1-.515l-2.524.595,1.894-3.673a2.433,2.433,0,0,0,2.963,1.014,1.314,1.314,0,0,1,1.5.4,2.454,2.454,0,0,0,.329.336Zm9.485-2.916a.861.861,0,0,0-1,.515l-.979,2.4L120.568,21.4a2.447,2.447,0,0,0,.329-.336,1.315,1.315,0,0,1,1.5-.4,2.433,2.433,0,0,0,2.963-1.014l1.894,3.673ZM109.623,9.956a2.424,2.424,0,0,0,.743-2.773A1.319,1.319,0,0,1,111.393,5.4a2.424,2.424,0,0,0,2.03-2.03A1.319,1.319,0,0,1,115.2,2.347a2.424,2.424,0,0,0,2.773-.743,1.319,1.319,0,0,1,2.055,0,2.424,2.424,0,0,0,2.773.743,1.319,1.319,0,0,1,1.779,1.027,2.424,2.424,0,0,0,2.03,2.03,1.319,1.319,0,0,1,1.027,1.779,2.424,2.424,0,0,0,.743,2.773,1.319,1.319,0,0,1,0,2.055,2.424,2.424,0,0,0-.743,2.773,1.319,1.319,0,0,1-1.027,1.779,2.424,2.424,0,0,0-2.03,2.03A1.319,1.319,0,0,1,122.8,19.62a2.424,2.424,0,0,0-2.773.743,1.319,1.319,0,0,1-2.055,0,2.424,2.424,0,0,0-2.773-.743,1.319,1.319,0,0,1-1.779-1.027,2.424,2.424,0,0,0-2.03-2.03,1.319,1.319,0,0,1-1.027-1.779,2.424,2.424,0,0,0-.743-2.773,1.319,1.319,0,0,1,0-2.055Z" transform="translate(-102.031 0.001)"/>
        <path id="Path_649" data-name="Path 649" d="M155.831,54.086a.557.557,0,0,0-.445.649,7.59,7.59,0,1,0,0-2.808.557.557,0,0,0,1.094.2,6.477,6.477,0,1,1,0,2.4.557.557,0,0,0-.649-.445Z" transform="translate(-145.875 -42.347)"/>
        <path id="Path_650" data-name="Path 650" d="M199.386,83.3l-2.476-.11-.869-2.321a.8.8,0,0,0-1.507,0l-.869,2.321-2.476.11a.8.8,0,0,0-.466,1.433l1.939,1.544L192,88.668a.805.805,0,0,0,1.219.886l2.067-1.367,2.068,1.367a.805.805,0,0,0,1.219-.886l-.661-2.389,1.939-1.544A.805.805,0,0,0,199.386,83.3Zm-2.326,2.234a.8.8,0,0,0-.274.844l.5,1.791-1.551-1.025h0a.8.8,0,0,0-.887,0l-1.551,1.025.5-1.791a.8.8,0,0,0-.274-.844l-1.454-1.158,1.857-.082a.8.8,0,0,0,.718-.522l.652-1.74.652,1.741a.8.8,0,0,0,.718.522l1.857.082Z" transform="translate(-178.316 -74.386)"/>
      </g>
    </g>
  </g>
</svg>
