<svg xmlns="http://www.w3.org/2000/svg" width="30.456" height="30.458" viewBox="0 0 30.456 30.458">
  <g id="Group_2146" data-name="Group 2146" transform="translate(-1070.684 -120)">
    <rect id="Rectangle_1311" data-name="Rectangle 1311" width="23.681" height="10.86" transform="translate(1074.071 123.381)" fill="#56ace0"/>
    <path id="Path_727" data-name="Path 727" d="M29.889,18.72,26.6,17.626h1.329A2.539,2.539,0,0,0,30.466,15.1V2.538A2.541,2.541,0,0,0,27.928,0H2.552A2.541,2.541,0,0,0,.014,2.538V15.1a2.539,2.539,0,0,0,2.538,2.528H14.611L18.7,29.875a.84.84,0,0,0,1.575.065l1.68-3.9,3.556,3.541a.842.842,0,0,0,1.194,0l2.884-2.879a.824.824,0,0,0,0-1.2l-3.551-3.541,3.9-1.67A.838.838,0,0,0,29.889,18.72ZM13.653,14.757l.4,1.189H2.552a.868.868,0,0,1-.848-.853V2.538A.841.841,0,0,1,2.552,1.7H27.933a.845.845,0,0,1,.848.838V15.1a.841.841,0,0,1-.848.838h-6.42l-6.787-2.252A.85.85,0,0,0,13.653,14.757Zm10.579,6.15a.844.844,0,0,0-.266,1.379L27.8,26.113,26.117,27.8,22.28,23.967a.83.83,0,0,0-1.374.266l-1.294,3-1.525-4.555h.868a.848.848,0,1,0,0-1.7h-1.44l-.376-1.129h2.643a.848.848,0,0,0,0-1.7H16.567l-.788-2.353,11.447,3.807Z" transform="translate(1070.67 120)" fill="#194f82"/>
  </g>
</svg>
