<svg xmlns="http://www.w3.org/2000/svg" width="24.42" height="25.5" viewBox="0 0 24.42 25.5">
  <g id="Group_2135" data-name="Group 2135" transform="translate(-786.333 -27.5)">
    <path id="Path_720" data-name="Path 720" d="M33.467,198.523h-.518V185.778h0a3.041,3.041,0,0,1-1.739-.557,3.024,3.024,0,0,1-1.751.557,2.982,2.982,0,0,1-.388-.031v9.48a.98.98,0,0,1-.98.98H24.57v-2.685l1.241,2.072a.783.783,0,1,0,1.343-.8l-2.5-4.165a.774.774,0,0,0-.716-.37c-.019,0-2.891,0-2.909,0a.776.776,0,0,0-.726.371l-2.5,4.165a.783.783,0,1,0,1.343.8l1.249-2.085v2.7H16.876a.98.98,0,0,1-.98-.98v-9.48a2.981,2.981,0,0,1-.388.031,3.08,3.08,0,0,1-.6-.059,3.025,3.025,0,0,1-1.153-.5,3.04,3.04,0,0,1-1.738.557h0v12.745H11.5a1.227,1.227,0,0,0,0,2.453H33.467a1.227,1.227,0,1,0,0-2.453Z" transform="translate(776.06 -147.976)" fill="#fff"/>
    <path id="Path_714" data-name="Path 714" d="M11.51,8.921a1.744,1.744,0,0,0,2.17-1.172l.092-.307a1.739,1.739,0,0,0,3.436.148l.043-.213a1.741,1.741,0,0,0,1.562,1.608c.059.006.117.008.175.008a1.744,1.744,0,0,0,1.733-1.571l.013-.129a1.74,1.74,0,0,0,3.48,0l.013.129a1.744,1.744,0,0,0,1.733,1.571c.058,0,.116,0,.175-.008A1.741,1.741,0,0,0,27.7,7.377l.043.213a1.739,1.739,0,0,0,3.436-.148l.092.307a1.745,1.745,0,0,0,1.67,1.245,1.763,1.763,0,0,0,.5-.073,1.744,1.744,0,0,0,1.172-2.17L33.037,1.482A2.075,2.075,0,0,0,31.048,0H13.9a2.075,2.075,0,0,0-1.989,1.482L10.338,6.751A1.744,1.744,0,0,0,11.51,8.921Z" transform="translate(776.069 27.5)" fill="#fff"/>
  </g>
</svg>
