<svg xmlns="http://www.w3.org/2000/svg" width="34.823" height="33.43" viewBox="0 0 34.823 33.43">
  <g id="thumbs-up-hand-symbol" transform="translate(0 -9.136)">
    <g id="Group_1227" data-name="Group 1227" transform="translate(0 9.136)">
      <path id="Path_700" data-name="Path 700" d="M160.218,27.7a4.77,4.77,0,0,0,1.2-3.243,4.235,4.235,0,0,0-4.177-4.179h-6.028a5.478,5.478,0,0,1,.174-.522,3.642,3.642,0,0,1,.239-.479q.152-.261.217-.392.392-.74.6-1.219a8.891,8.891,0,0,0,.413-1.306,6.784,6.784,0,0,0,.207-1.654c0-.348,0-.631-.011-.849a9.354,9.354,0,0,0-.108-.98,5.5,5.5,0,0,0-.261-1.088,5.071,5.071,0,0,0-.522-.979,3.051,3.051,0,0,0-.871-.882,4.769,4.769,0,0,0-1.306-.566,6.5,6.5,0,0,0-1.8-.229,1.339,1.339,0,0,0-.979.414,3.778,3.778,0,0,0-.74,1.088,6.475,6.475,0,0,0-.425,1.132q-.12.479-.272,1.328-.2.915-.294,1.317a6.96,6.96,0,0,1-.381,1.055,3.335,3.335,0,0,1-.675,1.045,32.18,32.18,0,0,0-2.2,2.612q-1.067,1.393-2.2,2.633t-1.654,1.284a1.427,1.427,0,0,0-.936.446,1.313,1.313,0,0,0-.392.947V38.387a1.3,1.3,0,0,0,.413.968,1.439,1.439,0,0,0,.979.425,15.913,15.913,0,0,1,3.439.958q1.676.565,2.622.859t2.644.631a16.172,16.172,0,0,0,3.134.338h2.808a5.407,5.407,0,0,0,4.288-1.7,5.232,5.232,0,0,0,1.066-3.939,4.234,4.234,0,0,0,1.175-2.046,4.476,4.476,0,0,0,0-2.546,4.517,4.517,0,0,0,.935-2.982A5.187,5.187,0,0,0,160.218,27.7Z" transform="translate(-126.593 -9.136)" fill="#fff"/>
      <path id="Path_701" data-name="Path 701" d="M7.661,191.864H1.393a1.339,1.339,0,0,0-.98.414,1.338,1.338,0,0,0-.414.979v13.93a1.34,1.34,0,0,0,.414.979,1.341,1.341,0,0,0,.98.413H7.661a1.412,1.412,0,0,0,1.393-1.393v-13.93a1.412,1.412,0,0,0-1.393-1.393Zm-2.5,13.526a1.356,1.356,0,0,1-.979.4,1.393,1.393,0,0,1-.99-2.372,1.379,1.379,0,0,1,1.97,0,1.379,1.379,0,0,1,0,1.97Z" transform="translate(0 -177.935)" fill="#fff"/>
    </g>
  </g>
</svg>
