<svg xmlns="http://www.w3.org/2000/svg" width="18.133" height="22" viewBox="0 0 18.133 22">
  <g id="trash" transform="translate(-48)">
    <path id="Path_467" data-name="Path 467" d="M64.39,2.75H60.554V2.062A2.078,2.078,0,0,0,58.461,0h-2.79a2.078,2.078,0,0,0-2.092,2.062V2.75H49.744A1.731,1.731,0,0,0,48,4.469V5.844a.692.692,0,0,0,.7.687H65.436a.692.692,0,0,0,.7-.687V4.469A1.731,1.731,0,0,0,64.39,2.75Zm-9.415-.687a.693.693,0,0,1,.7-.687h2.79a.693.693,0,0,1,.7.687V2.75H54.974Z" transform="translate(0)" fill="#009fbd"/>
    <path id="Path_468" data-name="Path 468" d="M73.583,184a.216.216,0,0,0-.218.225l.577,11.9a2.079,2.079,0,0,0,2.094,1.965H86.647a2.079,2.079,0,0,0,2.094-1.965l.577-11.9A.216.216,0,0,0,89.1,184Zm10.554,1.719a.7.7,0,0,1,1.4,0v8.938a.7.7,0,0,1-1.4,0Zm-3.494,0a.7.7,0,0,1,1.4,0v8.938a.7.7,0,0,1-1.4,0Zm-3.494,0a.7.7,0,0,1,1.4,0v8.938a.7.7,0,0,1-1.4,0Z" transform="translate(-24.274 -176.094)" fill="#009fbd"/>
  </g>
</svg>
