<svg xmlns="http://www.w3.org/2000/svg" width="21.973" height="25" viewBox="0 0 21.973 25">
  <g id="Group_2134" data-name="Group 2134" transform="translate(-578 -27.5)">
    <g id="Group_2132" data-name="Group 2132" transform="translate(582.395 27.5)">
      <g id="Group_2" data-name="Group 2">
        <path id="Path_2" data-name="Path 2" d="M127.592,0a6.592,6.592,0,1,0,6.592,6.592A6.6,6.6,0,0,0,127.592,0Z" transform="translate(-121)" fill="#fff"/>
      </g>
    </g>
    <g id="Group_2133" data-name="Group 2133" transform="translate(578 42.148)">
      <g id="Group_4" data-name="Group 4">
        <path id="Path_3" data-name="Path 3" d="M50.188,302.842A9.4,9.4,0,0,0,43.451,300h-2.93a9.4,9.4,0,0,0-6.737,2.842A9.607,9.607,0,0,0,31,309.619a.732.732,0,0,0,.732.732H52.24a.732.732,0,0,0,.732-.732A9.607,9.607,0,0,0,50.188,302.842Z" transform="translate(-31 -300)" fill="#fff"/>
      </g>
    </g>
  </g>
</svg>
