<svg id="whatsapp" xmlns="http://www.w3.org/2000/svg" width="26.914" height="26.914" viewBox="0 0 26.914 26.914">
  <g id="Group_1185" data-name="Group 1185">
    <path id="Path_640" data-name="Path 640" d="M13.461,0h-.007A13.449,13.449,0,0,0,2.562,21.345l-1.677,5,5.173-1.654A13.455,13.455,0,1,0,13.461,0Zm7.83,19a3.8,3.8,0,0,1-2.641,1.9c-.7.15-1.622.269-4.713-1.013-3.955-1.638-6.5-5.657-6.7-5.918a7.686,7.686,0,0,1-1.6-4.059A4.3,4.3,0,0,1,7.015,6.638a1.955,1.955,0,0,1,1.376-.483c.167,0,.316.008.451.015.4.017.594.04.855.664.325.782,1.115,2.713,1.209,2.912a.8.8,0,0,1,.057.728,2.326,2.326,0,0,1-.436.617c-.2.229-.387.4-.585.649-.182.214-.387.442-.158.838a11.945,11.945,0,0,0,2.183,2.713,9.894,9.894,0,0,0,3.156,1.946.851.851,0,0,0,.949-.15A16.283,16.283,0,0,0,17.123,15.7a.751.751,0,0,1,.966-.293c.363.126,2.286,1.077,2.681,1.273s.656.293.752.459A3.351,3.351,0,0,1,21.291,19Z"/>
  </g>
</svg>
